<?xml version="1.0" standalone="no"?>
<!DOCTYPE svg PUBLIC "-//W3C//DTD SVG 20010904//EN"
 "http://www.w3.org/TR/2001/REC-SVG-20010904/DTD/svg10.dtd">
<svg version="1.0" xmlns="http://www.w3.org/2000/svg"
 width="1280.000000pt" height="895.000000pt" viewBox="0 0 1280.000000 895.000000"
 preserveAspectRatio="xMidYMid meet">
<metadata>
Created by potrace 1.15, written by Peter Selinger 2001-2017
</metadata>
<g transform="translate(0.000000,895.000000) scale(0.100000,-0.100000)"
fill="#333c4d" stroke="none">
<path d="M3540 8935 c-112 -18 -274 -72 -389 -130 -189 -94 -344 -208 -531
-391 -93 -90 -130 -119 -196 -152 -161 -80 -280 -170 -435 -328 -302 -311
-569 -790 -739 -1326 -17 -53 -26 -68 -41 -68 -12 0 -23 10 -29 25 -11 28 -30
32 -63 11 -19 -12 -34 -12 -112 1 -73 12 -93 19 -108 39 -22 28 -34 30 -58 8
-14 -13 -26 -14 -80 -4 -111 19 -117 21 -122 41 -7 24 -27 24 -74 -1 -21 -11
-48 -20 -60 -20 -12 0 -48 -10 -80 -21 -186 -69 -295 -211 -334 -435 -47 -276
-2 -517 122 -644 36 -37 55 -48 102 -59 41 -9 62 -19 73 -37 18 -26 43 -31 62
-12 20 20 208 -29 227 -59 17 -25 53 -31 61 -9 9 23 178 -25 210 -59 l25 -27
-15 -152 c-79 -766 -52 -1390 79 -1840 91 -314 255 -631 411 -796 18 -19 57
-87 87 -151 257 -548 615 -886 1064 -1006 135 -36 329 -38 447 -5 323 92 602
314 1019 812 440 527 778 1088 1017 1690 32 80 65 170 75 200 10 30 20 58 24
62 4 4 29 1 56 -8 87 -27 711 -181 1189 -294 253 -60 475 -113 491 -118 29 -8
30 -10 29 -62 0 -30 -9 -167 -19 -305 -22 -298 -26 -869 -7 -1070 53 -553 149
-923 338 -1292 118 -232 240 -399 410 -563 208 -200 435 -320 688 -365 203
-35 379 -6 581 97 160 81 282 175 476 365 75 73 143 133 150 133 25 0 158 68
232 119 40 27 83 52 97 56 47 14 145 68 200 110 82 63 220 212 300 324 163
228 358 593 475 884 42 107 66 154 83 165 82 55 120 124 148 272 8 41 17 85
19 96 7 33 53 19 77 -22 23 -39 41 -43 61 -13 l15 20 106 -27 c97 -26 108 -31
126 -61 23 -39 32 -41 59 -12 l19 21 98 -26 c80 -22 104 -32 124 -56 29 -35
33 -36 55 -13 16 15 23 15 111 -6 77 -19 100 -29 124 -54 28 -30 30 -30 48
-14 19 17 23 17 98 -2 138 -34 168 -36 219 -11 126 61 264 313 315 577 56 283
28 535 -70 633 -32 32 -50 40 -131 59 -137 32 -157 40 -164 62 -7 21 -44 26
-61 9 -18 -18 -222 37 -229 61 -7 20 -49 27 -59 10 -9 -14 -226 46 -241 65 -8
12 -20 15 -39 10 -34 -8 -257 50 -269 70 -4 8 -14 14 -22 14 -8 0 -23 20 -34
44 -10 25 -38 64 -60 89 l-41 44 0 214 c-1 819 -197 1583 -519 2023 -20 28
-52 89 -71 136 -115 290 -326 618 -510 794 -198 189 -401 303 -632 352 -113
25 -331 25 -448 0 -317 -68 -619 -251 -916 -557 -412 -425 -738 -1014 -980
-1769 -27 -84 -54 -154 -61 -157 -6 -2 -166 38 -355 91 -504 140 -838 228
-1151 304 l-278 67 -4 280 c-2 154 -8 343 -14 420 -72 895 -298 1593 -680
2093 -32 42 -107 124 -168 183 -303 293 -649 412 -1023 354z"/>
</g>
</svg>
