<?xml version="1.0" encoding="iso-8859-1"?>
<!-- Generator: Adobe Illustrator 18.0.0, SVG Export Plug-In . SVG Version: 6.00 Build 0)  -->
<!DOCTYPE svg PUBLIC "-//W3C//DTD SVG 1.1//EN" "http://www.w3.org/Graphics/SVG/1.1/DTD/svg11.dtd">
<svg version="1.1" id="Capa_1" xmlns="http://www.w3.org/2000/svg" xmlns:xlink="http://www.w3.org/1999/xlink" x="0px" y="0px"
	 fill="#333c4d" viewBox="0 0 293.015 293.015" style="enable-background:new 0 0 293.015 293.015;" xml:space="preserve">
<g>
	<path d="M117.134,163.438h6.082v74.443c0,5.247,4.253,9.5,9.5,9.5h27.583c5.247,0,9.5-4.253,9.5-9.5v-74.443h6.082
		c3.842,0,7.306-2.314,8.777-5.865c1.47-3.55,0.658-7.636-2.059-10.353l-29.373-29.373c-3.71-3.71-9.725-3.71-13.435,0
		l-29.373,29.373c-2.717,2.717-3.53,6.803-2.059,10.353C109.828,161.124,113.292,163.438,117.134,163.438z"/>
	<path d="M22.212,102.784h6.081v135.098c0,5.247,4.253,9.5,9.5,9.5h27.583c5.247,0,9.5-4.253,9.5-9.5V102.784h6.082
		c3.842,0,7.306-2.314,8.777-5.864c1.47-3.55,0.658-7.636-2.059-10.353L58.303,57.193c-3.71-3.71-9.725-3.71-13.435,0L15.495,86.566
		c-2.717,2.717-3.53,6.803-2.059,10.353C14.906,100.469,18.37,102.784,22.212,102.784z"/>
	<path d="M212.056,48.373h6.081v189.508c0,5.247,4.253,9.5,9.5,9.5h27.583c5.247,0,9.5-4.253,9.5-9.5V48.373h6.082
		c3.842,0,7.306-2.315,8.777-5.864c1.47-3.55,0.658-7.636-2.059-10.353L248.147,2.783c-3.71-3.71-9.725-3.71-13.435,0
		l-29.373,29.373c-2.717,2.717-3.53,6.803-2.059,10.353C204.75,46.059,208.214,48.373,212.056,48.373z"/>
	<path d="M264.721,263.015H28.294c-8.284,0-15,6.716-15,15c0,8.284,6.716,15,15,15h236.428c8.284,0,15-6.716,15-15
		C279.721,269.731,273.005,263.015,264.721,263.015z"/>
</g>
<g>
</g>
<g>
</g>
<g>
</g>
<g>
</g>
<g>
</g>
<g>
</g>
<g>
</g>
<g>
</g>
<g>
</g>
<g>
</g>
<g>
</g>
<g>
</g>
<g>
</g>
<g>
</g>
<g>
</g>
</svg>
